<svg width="120" height="120" viewBox="0 0 120 120" fill="none" xmlns="http://www.w3.org/2000/svg">
<g clip-path="url(#clip0_5494_12246)">
<path d="M12.9634 67.1515H16.9089V63.6417H13.2196C10.1453 63.6417 9.06929 61.963 9.06929 59.1143V44.1081H17.2675V40.6999H9.06929V33.0187H5.27762V39.3773C5.27762 40.242 4.71398 40.6999 3.99663 40.6999H0V44.1081H5.02142V59.1652C5.02142 64.5065 8.04451 67.1515 12.9634 67.1515Z" fill="#15166D"/>
<path d="M35.7011 67.8129C41.9523 67.8129 46.615 64.3029 48.1009 59.3688H43.8994C42.6695 62.4717 39.2878 64.1504 35.7524 64.1504C30.2698 64.1504 26.8367 60.6404 26.6317 55.3501H48.357V53.5697C48.357 45.9394 43.5406 40.0386 35.4449 40.0386C28.1689 40.0386 22.3789 45.4815 22.3789 53.9257C22.3789 61.8612 27.554 67.8129 35.7011 67.8129ZM26.7342 51.7892C27.1441 46.9059 30.987 43.7011 35.4449 43.7011C39.9539 43.7011 43.6943 46.4988 44.053 51.7892H26.7342Z" fill="#15166D"/>
<path d="M59.2776 67.1515H61.2247V63.5908H59.995C58.7139 63.5908 58.0479 62.8276 58.0479 61.5051V29H54V61.5051C54 65.1169 55.9471 67.1515 59.2776 67.1515Z" fill="#15166D"/>
<path d="M109.651 67.8129C115.851 67.8129 120.001 64.4556 120.001 59.4704C120.001 48.5336 104.015 54.1293 104.015 47.4146C104.015 45.1255 106.167 43.4977 109.497 43.4977C113.033 43.4977 114.929 45.1763 115.287 47.6689H119.182C118.772 42.8872 114.672 40.0386 109.753 40.0386C104.168 40.0386 100.121 42.9381 100.121 47.4146C100.121 57.8935 116.056 52.2472 116.056 59.6739C116.056 62.3699 113.853 64.3029 109.856 64.3029C105.962 64.3029 103.707 62.6243 103.246 59.4704H99.3008C99.7619 64.4047 103.349 67.8129 109.651 67.8129Z" fill="#15166D"/>
<g filter="url(#filter0_i_5494_12246)">
<path d="M79.9266 67.8532C87.7324 67.8532 94.0603 61.5711 94.0603 53.8217C94.0603 46.0723 87.7324 39.7902 79.9266 39.7902C72.1208 39.7902 65.793 46.0723 65.793 53.8217C65.793 61.5711 72.1208 67.8532 79.9266 67.8532Z" fill="url(#paint0_linear_5494_12246)"/>
<path d="M79.9266 67.8532C87.7324 67.8532 94.0603 61.5711 94.0603 53.8217C94.0603 46.0723 87.7324 39.7902 79.9266 39.7902C72.1208 39.7902 65.793 46.0723 65.793 53.8217C65.793 61.5711 72.1208 67.8532 79.9266 67.8532Z" fill="url(#paint1_linear_5494_12246)"/>
</g>
<path d="M79.9257 67.4413C87.5024 67.4413 93.6445 61.3436 93.6445 53.8217C93.6445 46.2998 87.5024 40.2021 79.9257 40.2021C72.3491 40.2021 66.207 46.2998 66.207 53.8217C66.207 61.3436 72.3491 67.4413 79.9257 67.4413Z" stroke="url(#paint2_linear_5494_12246)" stroke-opacity="0.12" stroke-width="1.1875"/>
<path d="M43.4978 90.2684H44.9378L47.091 82.2218H47.1733L49.3264 90.2684H50.7664L53.2213 80.7378H52.0281L50.067 88.9205H49.9847L47.8315 80.7378H46.4327L44.2795 88.9205H44.1971L42.2361 80.7378H41.043L43.4978 90.2684ZM58.984 90.2684H60.1497L61.0137 88.0083H65.6491L66.5131 90.2684H67.6789L63.9897 80.7378H62.6868L58.984 90.2684ZM61.3977 87.0008L63.2903 82.0176H63.3726L65.2651 87.0008H61.3977ZM74.8079 90.2684H80.0604V89.2745H75.9187V80.7378H74.8079V90.2684ZM87.606 90.2684H92.8586V89.2745H88.7169V80.7378H87.606V90.2684ZM100.404 90.2684H106.027V89.2745H101.515V85.9116H105.273V84.9177H101.515V81.7453H105.876V80.7378H100.404V90.2684ZM115.539 90.2684H116.65V81.7453H119.585V80.7378H112.604V81.7453H115.539V90.2684Z" fill="#15166D"/>
</g>
<defs>
<filter id="filter0_i_5494_12246" x="56.293" y="39.7902" width="37.7656" height="28.0631" filterUnits="userSpaceOnUse" color-interpolation-filters="sRGB">
<feFlood flood-opacity="0" result="BackgroundImageFix"/>
<feBlend mode="normal" in="SourceGraphic" in2="BackgroundImageFix" result="shape"/>
<feColorMatrix in="SourceAlpha" type="matrix" values="0 0 0 0 0 0 0 0 0 0 0 0 0 0 0 0 0 0 127 0" result="hardAlpha"/>
<feOffset dx="-14.25"/>
<feGaussianBlur stdDeviation="4.75"/>
<feComposite in2="hardAlpha" operator="arithmetic" k2="-1" k3="1"/>
<feColorMatrix type="matrix" values="0 0 0 0 0.682353 0 0 0 0 0.45098 0 0 0 0 0.980392 0 0 0 0.56 0"/>
<feBlend mode="normal" in2="shape" result="effect1_innerShadow_5494_12246"/>
</filter>
<linearGradient id="paint0_linear_5494_12246" x1="79.9266" y1="39.7902" x2="79.9266" y2="67.8533" gradientUnits="userSpaceOnUse">
<stop stop-color="#130C3F"/>
<stop offset="1" stop-color="#15197B"/>
</linearGradient>
<linearGradient id="paint1_linear_5494_12246" x1="65.7932" y1="53.8217" x2="94.0606" y2="53.8217" gradientUnits="userSpaceOnUse">
<stop stop-color="#AE73FA"/>
<stop offset="1" stop-color="#AE73FA" stop-opacity="0"/>
</linearGradient>
<linearGradient id="paint2_linear_5494_12246" x1="93.9326" y1="53.8217" x2="65.9194" y2="53.8217" gradientUnits="userSpaceOnUse">
<stop stop-color="#AE73FA"/>
<stop offset="1" stop-color="#AE73FA" stop-opacity="0"/>
</linearGradient>
<clipPath id="clip0_5494_12246">
<rect width="120" height="62.9703" fill="white" transform="translate(0 29)"/>
</clipPath>
</defs>
</svg>
